<svg width="30" height="30" viewBox="0 0 30 30" fill="none" xmlns="http://www.w3.org/2000/svg">
<path d="M26.25 23.7502V15.3339C26.25 14.6558 26.112 13.9847 25.8445 13.3615C25.577 12.7383 25.1854 12.176 24.6937 11.7089L16.7225 4.1377C16.2579 3.6963 15.6415 3.4502 15.0006 3.4502C14.3598 3.4502 13.7434 3.6963 13.2788 4.1377L5.30625 11.7089C4.81457 12.176 4.42304 12.7383 4.15551 13.3615C3.88797 13.9847 3.75 14.6558 3.75 15.3339V23.7502C3.75 24.4132 4.01339 25.0491 4.48223 25.518C4.95107 25.9868 5.58696 26.2502 6.25 26.2502H23.75C24.413 26.2502 25.0489 25.9868 25.5178 25.518C25.9866 25.0491 26.25 24.4132 26.25 23.7502Z" stroke="#02C275" stroke-width="2" stroke-linecap="round" stroke-linejoin="round"/>
<path d="M11.25 18.75C11.25 18.087 11.5134 17.4511 11.9822 16.9822C12.4511 16.5134 13.087 16.25 13.75 16.25H16.25C16.913 16.25 17.5489 16.5134 18.0178 16.9822C18.4866 17.4511 18.75 18.087 18.75 18.75V26.25H11.25V18.75Z" stroke="#02C275" stroke-width="2" stroke-linecap="round" stroke-linejoin="round"/>
</svg>
