<svg width="15" height="15" viewBox="0 0 15 15" fill="none" xmlns="http://www.w3.org/2000/svg">
<path d="M10.2969 3.37989L11.62 4.70302M11.1475 2.21427L7.56813 5.79364C7.38318 5.97833 7.25705 6.21363 7.20563 6.46989L6.875 8.12489L8.53 7.79364C8.78625 7.74239 9.02125 7.61677 9.20625 7.43177L12.7856 3.85239C12.8932 3.74483 12.9785 3.61714 13.0367 3.4766C13.0949 3.33607 13.1249 3.18544 13.1249 3.03333C13.1249 2.88122 13.0949 2.73059 13.0367 2.59006C12.9785 2.44952 12.8932 2.32183 12.7856 2.21427C12.6781 2.10671 12.5504 2.02138 12.4098 1.96317C12.2693 1.90496 12.1187 1.875 11.9666 1.875C11.8144 1.875 11.6638 1.90496 11.5233 1.96317C11.3828 2.02138 11.2551 2.10671 11.1475 2.21427Z" stroke="#02C275" stroke-width="1.25" stroke-linecap="round" stroke-linejoin="round"/>
<path d="M11.875 9.375V11.25C11.875 11.5815 11.7433 11.8995 11.5089 12.1339C11.2745 12.3683 10.9565 12.5 10.625 12.5H3.75C3.41848 12.5 3.10054 12.3683 2.86612 12.1339C2.6317 11.8995 2.5 11.5815 2.5 11.25V4.375C2.5 4.04348 2.6317 3.72554 2.86612 3.49112C3.10054 3.2567 3.41848 3.125 3.75 3.125H5.625" stroke="#02C275" stroke-width="1.25" stroke-linecap="round" stroke-linejoin="round"/>
</svg>
