<svg width="134" height="78" viewBox="0 0 134 78" fill="none" xmlns="http://www.w3.org/2000/svg">
<ellipse cx="66" cy="62.5" rx="66" ry="15.5" fill="#4C4C4C"/>
<g clip-path="url(#clip0_3070_2015)">
<path d="M14.3346 51.0501L12.9606 59.9007C12.6626 61.8223 14.6059 63.3158 16.3915 62.5357L30.2218 56.5015V50.2793L27.1799 53.0104L27.1171 55.5321L16.1777 59.8647L17.8269 50.9607L14.3346 51.0501Z" fill="black"/>
<path d="M99.3788 61.8263L97.2484 71.9851C96.9704 73.3133 98.3109 74.4014 99.5579 73.8574L114.534 67.3231L115.068 56.0015L112.026 58.7325L111.416 66.5643L100.349 70.4716L102.87 61.7383L99.3788 61.8263Z" fill="black"/>
<path d="M10.2861 50.8364L99.6139 62.5341H104.949L116.781 57.9001C116.781 57.9001 120.676 47.0479 122.44 45.8744C124.205 44.7009 126.997 43.454 126.997 42.1352C126.997 40.815 128.834 37.6625 122.44 37.0024C116.046 36.3423 33.2462 24.8754 33.2462 24.8754C33.2462 24.8754 31.6704 23.8499 28.5082 29.8667C25.346 35.8836 23.654 40.2136 23.654 40.2136C23.654 40.2136 20.2311 44.0288 12.2721 43.9554C4.31315 43.8808 7.65446 51.1898 10.2861 50.8364Z" fill="#FB7DB4"/>
<path d="M20.8675 38.7429C20.8675 38.7429 17.0477 39.7257 19.9613 42.0434C21.1428 43.929 21.6547 43.929 21.6547 43.929L29.0189 44.3611L30.9489 42.2394C30.9489 42.2394 33.666 40.8646 30.9489 39.7644C28.2317 38.6643 20.8675 38.7429 20.8675 38.7429Z" fill="#663910"/>
<path d="M25.5105 39.9669L21.2323 33.9381L16.8324 35.5183L11.6106 33.9381L7.73874 35.9277L1.52124 37.7426L6.09749 32.4165C6.09616 32.4165 24.9197 24.3967 25.5105 39.9669Z" fill="#02C275"/>
<path d="M25.3862 39.9671L28.4014 34.8664L31.978 35.8719L36.0103 34.289L39.1939 35.6558L44.2232 36.74L40.2778 32.7354C40.2791 32.7367 24.9011 27.4226 25.3862 39.9671Z" fill="#02C275"/>
<path d="M25.4531 39.6606L26.4367 30.9913L31.7922 30.3192L36.2174 25.8613L41.2641 25.9053L48.599 24.5117L40.9741 21.3086C40.9728 21.3099 17.3631 22.8502 25.4531 39.6606Z" fill="#02C275"/>
<path d="M25.4209 39.9671L24.0109 31.6179L19.5242 28.2601V26.4705L13.4992 26.1505L11.1268 23.3367L5.29425 23.6568L1 20.715L9.67269 19.2642C9.67269 19.2642 27.8481 21.7312 25.4209 39.9671Z" fill="#02C275"/>
<path d="M42.9815 42.7355C42.9307 40.6898 34.651 34.4756 31.7988 52.7169" stroke="#02C275" stroke-width="2" stroke-miterlimit="10" stroke-linecap="round"/>
<path d="M42.9816 42.7354C42.9816 39.9297 34.7446 41.7073 35.902 56.3334" stroke="#02C275" stroke-width="2" stroke-miterlimit="10" stroke-linecap="round"/>
<path d="M43.4078 43.0704C44.3393 39.8699 35.0518 33.4623 27.7117 39.8086" stroke="#02C275" stroke-width="2" stroke-miterlimit="10" stroke-linecap="round"/>
<path d="M43.408 43.0702C48.9251 34.8503 52.3907 48.8336 47.3373 60.7167" stroke="#02C275" stroke-width="2" stroke-miterlimit="10" stroke-linecap="round"/>
<path d="M40.1782 42.7389V45.1365L41.3588 45.5173V49.3331H43.7217L44.9023 45.6818L46.0279 45.3543L46.3643 42.1387L40.1782 42.7389Z" fill="#663910"/>
<path d="M106.052 49.0855C106.052 49.0855 101.14 48.6615 102.414 54.2276C103.003 56.752 103.003 56.752 103.003 56.752L110.92 57.8561L113.685 53.4675C113.685 53.4662 113.801 49.4536 106.052 49.0855Z" fill="#663910"/>
<path d="M105.397 51.7955L102.719 32.126V5.27676L104.058 1.94428L106.893 0L108.935 2.03629V10.4615V18.2386V29.9043L109.678 43.4209L108.285 52.4942L105.397 51.7955Z" fill="#02C275"/>
<path d="M107.194 52.4165L108.972 29.06L111.386 15.8208L113.599 9.98794L115.282 9.33984H117.324V12.0242V19.8934L114.726 31.2817L112.592 40.9097L110.365 51.2792L109.808 53.0381L107.194 52.4165Z" fill="#02C275"/>
<path d="M109.256 52.9307L113.106 38.3417L118.393 30.7686L125.472 24.4717L131.101 18.6016L134 19.1963V21.4086V22.7702L130.504 26.8548L126.069 31.9595L117.883 39.958L114.387 47.4457L110.378 53.0385L109.256 52.9307Z" fill="#02C275"/>
</g>
<defs>
<clipPath id="clip0_3070_2015">
<rect width="133" height="74" fill="white" transform="translate(1)"/>
</clipPath>
</defs>
</svg>
