<svg width="30" height="30" viewBox="0 0 30 30" fill="none" xmlns="http://www.w3.org/2000/svg">
<path d="M9.875 25.0001C12.2607 26.2239 15.0051 26.5554 17.6136 25.9348C20.2221 25.3142 22.5232 23.7823 24.1022 21.6153C25.6812 19.4482 26.4343 16.7884 26.2257 14.1153C26.0172 11.4421 24.8607 8.93127 22.9648 7.0353C21.0688 5.13933 18.558 3.98287 15.8848 3.77433C13.2116 3.56579 10.5518 4.31887 8.38477 5.89787C6.21771 7.47687 4.68586 9.77795 4.06528 12.3864C3.44469 14.995 3.77618 17.7393 5 20.1251L2.5 27.5001L9.875 25.0001Z" stroke="#6A6A6A" stroke-width="2" stroke-linecap="round" stroke-linejoin="round"/>
<path d="M19.75 11.5002C19.1659 10.9277 18.3805 10.6069 17.5625 10.6069C16.7446 10.6069 15.9592 10.9277 15.375 11.5002L15 12.0002L14.5625 11.6252C14.276 11.3151 13.9277 11.0683 13.54 10.9009C13.1523 10.7335 12.7339 10.6491 12.3116 10.6532C11.8893 10.6572 11.4726 10.7496 11.0882 10.9245C10.7038 11.0993 10.3603 11.3527 10.0798 11.6683C9.79921 11.9839 9.58785 12.3548 9.45928 12.757C9.33072 13.1593 9.28779 13.584 9.33327 14.0038C9.37874 14.4236 9.51162 14.8293 9.72333 15.1946C9.93505 15.56 10.2209 15.877 10.5625 16.1252L15.0625 20.5002L19.5625 16.1252C21.0625 14.6252 20.9375 12.7502 19.8125 11.5002" fill="white"/>
<path d="M19.75 11.5002C19.1659 10.9277 18.3805 10.6069 17.5625 10.6069C16.7446 10.6069 15.9592 10.9277 15.375 11.5002L15 12.0002L14.5625 11.6252C14.276 11.3151 13.9277 11.0683 13.54 10.9009C13.1523 10.7335 12.7339 10.6491 12.3116 10.6532C11.8893 10.6572 11.4726 10.7496 11.0882 10.9245C10.7038 11.0993 10.3603 11.3527 10.0798 11.6683C9.79921 11.9839 9.58785 12.3548 9.45928 12.757C9.33072 13.1593 9.28779 13.584 9.33327 14.0038C9.37874 14.4236 9.51162 14.8293 9.72333 15.1946C9.93505 15.56 10.2209 15.877 10.5625 16.1252L15.0625 20.5002L19.5625 16.1252C21.0625 14.6252 20.9376 12.7502 19.8126 11.5002" stroke="#6A6A6A" stroke-width="2" stroke-linecap="round" stroke-linejoin="round"/>
</svg>
