<svg width="15" height="15" viewBox="0 0 15 15" fill="none" xmlns="http://www.w3.org/2000/svg">
<path d="M5.625 5.625V3.875C5.625 3.175 5.625 2.825 5.76125 2.5575C5.88125 2.32188 6.07188 2.13125 6.3075 2.01125C6.575 1.875 6.925 1.875 7.625 1.875H11.125C11.825 1.875 12.175 1.875 12.4425 2.01125C12.6777 2.13109 12.8689 2.32231 12.9887 2.5575C13.125 2.825 13.125 3.175 13.125 3.875V7.375C13.125 8.075 13.125 8.425 12.9887 8.6925C12.8688 8.92764 12.6776 9.11884 12.4425 9.23875C12.175 9.375 11.825 9.375 11.1269 9.375H9.375M5.625 5.625H3.875C3.175 5.625 2.825 5.625 2.5575 5.76125C2.32228 5.88106 2.13105 6.07228 2.01125 6.3075C1.875 6.575 1.875 6.925 1.875 7.625V11.125C1.875 11.825 1.875 12.175 2.01125 12.4425C2.13109 12.6777 2.32231 12.8689 2.5575 12.9887C2.82437 13.125 3.17437 13.125 3.87313 13.125H7.3775C8.07562 13.125 8.425 13.125 8.6925 12.9887C8.92769 12.8689 9.11891 12.6777 9.23875 12.4425C9.375 12.175 9.375 11.8256 9.375 11.1269V9.375M5.625 5.625H7.375C8.075 5.625 8.425 5.625 8.6925 5.76125C8.92769 5.88109 9.11891 6.07231 9.23875 6.3075C9.375 6.57437 9.375 6.92437 9.375 7.62312V9.375" stroke="#242424" stroke-width="1.25" stroke-linecap="round" stroke-linejoin="round"/>
</svg>
