<svg width="21" height="26" viewBox="0 0 21 26" fill="none" xmlns="http://www.w3.org/2000/svg">
<path d="M9.13217 25.0872C6.33289 25.0872 3.43792 24.1081 1.80362 21.4063C0.583422 19.3892 0.57606 17.1899 0.57238 15.8759C0.563177 13.2717 2.04287 10.6712 3.42871 9.1068C4.62682 7.75409 6.99545 6.43451 8.5911 5.94128L9.58307 9.15098C8.49723 9.48593 6.66969 10.5147 5.94273 11.3356C4.75382 12.6772 3.92747 14.5397 3.93115 15.8648C3.93483 17.2267 3.99556 18.5426 4.67836 19.669C6.43596 22.575 10.9008 21.8057 12.6676 21.007C13.678 20.5505 15.9104 19.0727 17.1233 16.7445C17.6699 15.6937 17.7895 14.5268 17.4601 13.4594C17.2944 12.9257 17.0699 12.5944 16.792 12.4784C16.273 12.2613 15.2608 12.4932 14.0829 13.1005C13.2013 13.5551 12.4155 13.9085 11.81 14.1238C10.4058 14.6207 9.43953 14.4017 8.93341 13.4704C8.58557 12.8281 8.47698 11.8343 9.93092 10.7411C10.4315 10.3656 11.1603 9.9037 12.0953 9.36998C15.8184 7.24797 15.3381 5.37811 14.9884 4.46526C14.5577 3.85056 14.0038 3.51009 13.2584 3.39966C11.6628 3.16225 9.20948 3.98307 6.35682 5.70939C4.01028 7.13019 2.20298 8.66694 2.18458 8.68166L0 6.13084C0.0809785 6.06274 2.00054 4.42293 4.57345 2.86225C8.21381 0.651903 11.302 -0.286714 13.7479 0.0758487C15.5 0.335348 16.9356 1.27029 17.8999 2.7776L17.9846 2.91194L18.0435 3.05918C18.9195 5.24744 18.684 7.32712 17.4012 9.15833C17.6386 9.21355 17.8687 9.28717 18.0895 9.38103C18.9398 9.73807 20.0772 10.5644 20.6661 12.4674C21.2587 14.387 21.0581 16.4574 20.0992 18.2979C18.5717 21.2315 15.8828 23.2412 14.0461 24.0694C12.6915 24.6823 10.9321 25.0872 9.13217 25.0872Z" fill="#242424"/>
</svg>
