<svg width="78" height="101" viewBox="0 0 78 101" fill="none" xmlns="http://www.w3.org/2000/svg">
<path d="M64.7602 31.6824C64.9409 30.6885 65.0412 29.6646 65.0412 28.6105C65.0412 20.4088 59.2589 13.5624 51.5391 11.916C51.5391 5.34063 46.2085 0 39.613 0C33.1079 0 27.8175 5.21013 27.697 11.6851C19.2745 12.7392 12.7593 19.9169 12.7593 28.6105C12.7593 29.5843 12.8496 30.538 13.0002 31.4716C5.25028 35.7882 0 44.0702 0 53.577C0 67.5309 11.3137 78.8446 25.2676 78.8446C30.2067 78.8446 34.8044 77.4291 38.6995 74.9796C42.5945 77.4291 47.1923 78.8446 52.1314 78.8446C66.0853 78.8446 77.399 67.5309 77.399 53.577C77.399 44.2208 72.3194 36.0593 64.7602 31.6824Z" fill="#3E7232"/>
<path d="M38.4586 101C38.1876 101 37.9768 100.779 37.9768 100.518L38.81 26.7432C38.81 26.4822 39.0308 26.2714 39.2918 26.2714C39.2918 26.2714 39.2919 26.2714 39.3019 26.2714C39.5629 26.2714 39.7837 26.4923 39.7737 26.7533L38.9405 100.528C38.9305 100.789 38.7196 101 38.4586 101Z" fill="#46332A"/>
<path d="M39.2818 59.0782C39.1814 59.0782 39.0911 59.048 39.0007 58.9878C38.7799 58.8372 38.7297 58.5361 38.8803 58.3152L47.2626 46.4092C47.4132 46.1884 47.7144 46.1382 47.9352 46.2888C48.1561 46.4393 48.2063 46.7405 48.0557 46.9614L39.6733 58.8673C39.583 58.9978 39.4324 59.0782 39.2818 59.0782Z" fill="#46332A"/>
<path d="M38.6994 42.2836C38.579 42.2836 38.4485 42.2334 38.3581 42.143L30.7186 34.4332C30.5279 34.2425 30.5379 33.9413 30.7186 33.7506C30.9094 33.5599 31.2105 33.5699 31.4013 33.7506L39.0408 41.4604C39.2315 41.6511 39.2215 41.9523 39.0408 42.143C38.9404 42.2434 38.8199 42.2836 38.6994 42.2836Z" fill="#46332A"/>
</svg>
