<svg width="30" height="31" viewBox="0 0 30 31" fill="none" xmlns="http://www.w3.org/2000/svg">
<path d="M5.27517 17.1399C5.27517 17.1399 -3.97395 13.5463 2.02196 6.34922C8.01788 -0.847884 13.9237 9.00183 13.9237 9.00183C13.9237 9.00183 14.6044 -0.527575 22.4621 0.0229682C30.3199 0.573511 29.0486 10.2531 25.8455 13.0859C27.7173 16.0588 32.8424 20.1328 27.9275 25.7183C23.8335 28.7814 19.4391 24.7073 17.7475 21.5542C16.5163 24.4871 13.5834 32.0746 5.85575 29.6522C-1.87188 27.2298 2.27221 18.9517 5.27517 17.1399Z" fill="#D7F9A2"/>
<path d="M13.8636 12.7251C13.8636 12.7251 10.2901 14.7471 12.0318 17.0794C13.7735 19.4117 18.0578 15.668 18.0578 15.668C18.0578 15.668 20.31 10.8432 13.8636 12.7251Z" fill="#045759"/>
</svg>
