<svg width="64" height="49" viewBox="0 0 64 49" fill="none" xmlns="http://www.w3.org/2000/svg">
<path d="M25.3282 34.1718L20.9999 29.8785C22.68 27.7836 23.4936 25.1246 23.2735 22.4483C23.0534 19.772 21.8162 17.2817 19.8163 15.4896C17.8165 13.6974 15.206 12.7396 12.5216 12.813C9.83727 12.8865 7.28306 13.9856 5.38422 15.8845C3.48538 17.7833 2.38622 20.3375 2.31277 23.0219C2.23932 25.7062 3.19715 28.3167 4.98931 30.3166C6.78147 32.3164 9.27174 33.5536 11.9481 33.7737C14.6244 33.9939 17.2834 33.1802 19.3782 31.5001L23.6716 35.7935C23.78 35.9028 23.909 35.9896 24.0512 36.0488C24.1934 36.1081 24.3459 36.1386 24.4999 36.1386C24.6539 36.1386 24.8064 36.1081 24.9486 36.0488C25.0907 35.9896 25.2198 35.9028 25.3282 35.7935C25.5385 35.5759 25.656 35.2852 25.656 34.9826C25.656 34.6801 25.5385 34.3893 25.3282 34.1718ZM12.8332 31.5001C11.218 31.5001 9.63907 31.0212 8.29606 30.1238C6.95306 29.2264 5.90632 27.951 5.28821 26.4587C4.67009 24.9665 4.50836 23.3244 4.82348 21.7402C5.13859 20.1561 5.91639 18.7009 7.05852 17.5588C8.20064 16.4166 9.65581 15.6388 11.24 15.3237C12.8242 15.0086 14.4662 15.1703 15.9585 15.7884C17.4507 16.4066 18.7262 17.4533 19.6236 18.7963C20.5209 20.1393 20.9999 21.7183 20.9999 23.3335C20.9999 25.4994 20.1395 27.5766 18.6079 29.1082C17.0764 30.6397 14.9992 31.5001 12.8332 31.5001Z" fill="white"/>
<path d="M53.5001 30.3333V31.5C53.5001 32.4283 53.1313 33.3185 52.475 33.9749C51.8186 34.6313 50.9283 35 50.0001 35C49.0718 35 48.1816 34.6313 47.5252 33.9749C46.8688 33.3185 46.5001 32.4283 46.5001 31.5V30.3333M53.5001 30.3333H46.5001M53.5001 30.3333H57.6884C58.1352 30.3333 58.3592 30.3333 58.5401 30.2727C58.7102 30.2151 58.8647 30.119 58.9916 29.9919C59.1184 29.8648 59.2143 29.7102 59.2716 29.54C59.3334 29.358 59.3334 29.134 59.3334 28.6837C59.3334 28.4865 59.3334 28.3885 59.3171 28.294C59.2884 28.1173 59.2193 27.9496 59.1152 27.804C59.0592 27.7258 58.9892 27.6558 58.8504 27.517L58.3954 27.062C58.3228 26.9894 58.2653 26.9031 58.2261 26.8082C58.1868 26.7134 58.1667 26.6117 58.1667 26.509V22.1667C58.1667 21.0942 57.9555 20.0322 57.5451 19.0414C57.1347 18.0506 56.5331 17.1503 55.7748 16.392C55.0164 15.6336 54.1162 15.0321 53.1253 14.6217C52.1345 14.2112 51.0725 14 50.0001 14C48.9276 14 47.8657 14.2112 46.8748 14.6217C45.884 15.0321 44.9837 15.6336 44.2254 16.392C43.467 17.1503 42.8655 18.0506 42.4551 19.0414C42.0447 20.0322 41.8334 21.0942 41.8334 22.1667V26.509C41.8335 26.6117 41.8133 26.7134 41.7741 26.8082C41.7349 26.9031 41.6773 26.9894 41.6047 27.062L41.1497 27.517C41.0097 27.657 40.9409 27.7258 40.8861 27.8028C40.7811 27.9487 40.7112 28.1167 40.6819 28.294C40.6667 28.3873 40.6667 28.4865 40.6667 28.6837C40.6667 29.134 40.6667 29.358 40.7274 29.54C40.785 29.7104 40.8812 29.8652 41.0085 29.9923C41.1358 30.1194 41.2907 30.2154 41.4612 30.2727C41.6421 30.3333 41.8649 30.3333 42.3117 30.3333H46.5001" stroke="white" stroke-width="2" stroke-linecap="round" stroke-linejoin="round"/>
</svg>
