<svg width="18" height="18" viewBox="0 0 18 18" fill="none" xmlns="http://www.w3.org/2000/svg">
<path d="M3.15315 10.2471C3.15315 10.2471 -2.37839 8.09317 1.21154 3.79537C4.79135 -0.502425 8.32063 5.38304 8.32063 5.38304C8.32063 5.38304 8.72512 -0.310309 13.4274 0.0132898C18.1297 0.347001 17.3612 6.12122 15.4499 7.82012C16.5724 9.59991 19.6264 12.0269 16.6938 15.364C14.2465 17.1944 11.6274 14.7674 10.6162 12.8764C9.87794 14.6258 8.12849 19.1663 3.50709 17.7202C-1.11431 16.2742 1.36324 11.3292 3.15315 10.2471Z" fill="#045759"/>
<path d="M8.29026 7.60786C8.29026 7.60786 6.15654 8.82137 7.19813 10.2169C8.23971 11.6124 10.7982 9.36742 10.7982 9.36742C10.7982 9.36742 12.1431 6.48537 8.29026 7.60786Z" fill="#E9FBC6"/>
</svg>
