<svg width="14" height="14" viewBox="0 0 14 14" fill="none" xmlns="http://www.w3.org/2000/svg">
<path d="M11.5938 4.95817H8.96883C8.81412 4.95817 8.66575 4.89671 8.55635 4.78732C8.44696 4.67792 8.3855 4.52955 8.3855 4.37484C8.3855 4.22013 8.44696 4.07175 8.55635 3.96236C8.66575 3.85296 8.81412 3.7915 8.96883 3.7915H11.0105V1.74984C11.0105 1.59513 11.072 1.44675 11.1814 1.33736C11.2907 1.22796 11.4391 1.1665 11.5938 1.1665C11.7485 1.1665 11.8969 1.22796 12.0063 1.33736C12.1157 1.44675 12.1772 1.59513 12.1772 1.74984V4.37484C12.1772 4.52955 12.1157 4.67792 12.0063 4.78732C11.8969 4.89671 11.7485 4.95817 11.5938 4.95817Z" fill="#02C275"/>
<path d="M7.00002 12.8332C5.97587 12.8341 4.96953 12.5653 4.0822 12.0539C3.19486 11.5425 2.4578 10.8065 1.94512 9.91994C1.43245 9.03335 1.16222 8.0274 1.16162 7.00325C1.16102 5.9791 1.43007 4.97285 1.94171 4.08565C2.45334 3.19846 3.18954 2.46161 4.07628 1.94918C4.96302 1.43676 5.96903 1.16682 6.99318 1.1665C8.01733 1.16619 9.02351 1.43552 9.91056 1.94741C10.7976 2.4593 11.5343 3.1957 12.0464 4.08259C12.1189 4.2161 12.1364 4.3726 12.0952 4.51882C12.0541 4.66504 11.9575 4.78944 11.8261 4.86557C11.6946 4.9417 11.5387 4.96356 11.3914 4.92649C11.2441 4.88942 11.117 4.79636 11.0373 4.66709C10.4699 3.68917 9.56637 2.95083 8.49503 2.58959C7.4237 2.22836 6.25758 2.26885 5.21388 2.70354C4.17019 3.13822 3.32007 3.93746 2.82189 4.95238C2.32371 5.96731 2.21142 7.12871 2.50594 8.22027C2.80046 9.31184 3.48172 10.2591 4.42281 10.8857C5.3639 11.5123 6.50066 11.7754 7.62135 11.6261C8.74205 11.4768 9.77027 10.9253 10.5145 10.0741C11.2587 9.22304 11.6682 8.13043 11.6667 6.99984C11.6667 6.84513 11.7281 6.69675 11.8375 6.58736C11.9469 6.47796 12.0953 6.4165 12.25 6.4165C12.4047 6.4165 12.5531 6.47796 12.6625 6.58736C12.7719 6.69675 12.8333 6.84513 12.8333 6.99984C12.8317 8.54641 12.2165 10.0292 11.1229 11.1227C10.0293 12.2163 8.54659 12.8315 7.00002 12.8332Z" fill="#02C275"/>
</svg>
