<svg width="30" height="49" viewBox="0 0 30 49" fill="none" xmlns="http://www.w3.org/2000/svg">
<path d="M15.275 12H14.725C14.062 12 13.4261 12.2634 12.9572 12.7322C12.4884 13.2011 12.225 13.837 12.225 14.5V14.725C12.2246 15.1634 12.1088 15.594 11.8894 15.9735C11.67 16.3531 11.3547 16.6683 10.975 16.8875L10.4375 17.2C10.0575 17.4194 9.62634 17.5349 9.1875 17.5349C8.74866 17.5349 8.31755 17.4194 7.9375 17.2L7.75 17.1C7.17633 16.7691 6.4948 16.6793 5.855 16.8504C5.21521 17.0215 4.66944 17.4394 4.3375 18.0125L4.0625 18.4875C3.73158 19.0612 3.64181 19.7427 3.81289 20.3825C3.98397 21.0223 4.40192 21.5681 4.975 21.9L5.1625 22.025C5.54035 22.2431 5.85453 22.5564 6.07382 22.9335C6.29311 23.3107 6.40987 23.7387 6.4125 24.175V24.8125C6.41425 25.253 6.29957 25.6862 6.08006 26.0681C5.86055 26.4501 5.54401 26.7672 5.1625 26.9875L4.975 27.1C4.40192 27.4319 3.98397 27.9777 3.81289 28.6175C3.64181 29.2573 3.73158 29.9388 4.0625 30.5125L4.3375 30.9875C4.66944 31.5606 5.21521 31.9785 5.855 32.1496C6.4948 32.3207 7.17633 32.2309 7.75 31.9L7.9375 31.8C8.31755 31.5806 8.74866 31.4651 9.1875 31.4651C9.62634 31.4651 10.0575 31.5806 10.4375 31.8L10.975 32.1125C11.3547 32.3317 11.67 32.6469 11.8894 33.0265C12.1088 33.406 12.2246 33.8366 12.225 34.275V34.5C12.225 35.163 12.4884 35.7989 12.9572 36.2678C13.4261 36.7366 14.062 37 14.725 37H15.275C15.938 37 16.5739 36.7366 17.0428 36.2678C17.5116 35.7989 17.775 35.163 17.775 34.5V34.275C17.7755 33.8366 17.8912 33.406 18.1106 33.0265C18.33 32.6469 18.6453 32.3317 19.025 32.1125L19.5625 31.8C19.9425 31.5806 20.3737 31.4651 20.8125 31.4651C21.2513 31.4651 21.6825 31.5806 22.0625 31.8L22.25 31.9C22.8237 32.2309 23.5052 32.3207 24.145 32.1496C24.7848 31.9785 25.3306 31.5606 25.6625 30.9875L25.9375 30.5C26.2684 29.9263 26.3582 29.2448 26.1871 28.605C26.016 27.9652 25.5981 27.4194 25.025 27.0875L24.8375 26.9875C24.456 26.7672 24.1395 26.4501 23.9199 26.0681C23.7004 25.6862 23.5858 25.253 23.5875 24.8125V24.1875C23.5858 23.747 23.7004 23.3138 23.9199 22.9319C24.1395 22.5499 24.456 22.2328 24.8375 22.0125L25.025 21.9C25.5981 21.5681 26.016 21.0223 26.1871 20.3825C26.3582 19.7427 26.2684 19.0612 25.9375 18.4875L25.6625 18.0125C25.3306 17.4394 24.7848 17.0215 24.145 16.8504C23.5052 16.6793 22.8237 16.7691 22.25 17.1L22.0625 17.2C21.6825 17.4194 21.2513 17.5349 20.8125 17.5349C20.3737 17.5349 19.9425 17.4194 19.5625 17.2L19.025 16.8875C18.6453 16.6683 18.33 16.3531 18.1106 15.9735C17.8912 15.594 17.7755 15.1634 17.775 14.725V14.5C17.775 13.837 17.5116 13.2011 17.0428 12.7322C16.5739 12.2634 15.938 12 15.275 12Z" stroke="#242424" stroke-width="2.5" stroke-linecap="round" stroke-linejoin="round"/>
<path d="M15 28.25C17.0711 28.25 18.75 26.5711 18.75 24.5C18.75 22.4289 17.0711 20.75 15 20.75C12.9289 20.75 11.25 22.4289 11.25 24.5C11.25 26.5711 12.9289 28.25 15 28.25Z" stroke="#242424" stroke-width="2.5" stroke-linecap="round" stroke-linejoin="round"/>
</svg>
