<svg width="43" height="6" viewBox="0 0 43 6" fill="none" xmlns="http://www.w3.org/2000/svg">
<path d="M0 1.5C0 0.671573 0.671573 0 1.5 0C2.32843 0 3 0.671573 3 1.5V6H0V1.5Z" fill="white"/>
<path d="M4 1.5C4 0.671573 4.67157 0 5.5 0C6.32843 0 7 0.671573 7 1.5V6H4V1.5Z" fill="white"/>
<path d="M8 1.5C8 0.671573 8.67157 0 9.5 0C10.3284 0 11 0.671573 11 1.5V6H8V1.5Z" fill="white"/>
<path d="M12 1.5C12 0.671573 12.6716 0 13.5 0C14.3284 0 15 0.671573 15 1.5V6H12V1.5Z" fill="white"/>
<path d="M16 1.5C16 0.671573 16.6716 0 17.5 0C18.3284 0 19 0.671573 19 1.5V6H16V1.5Z" fill="white"/>
<path d="M20 1.5C20 0.671573 20.6716 0 21.5 0C22.3284 0 23 0.671573 23 1.5V6H20V1.5Z" fill="white"/>
<path d="M24 1.5C24 0.671573 24.6716 0 25.5 0C26.3284 0 27 0.671573 27 1.5V6H24V1.5Z" fill="white"/>
<path d="M28 1.5C28 0.671573 28.6716 0 29.5 0C30.3284 0 31 0.671573 31 1.5V6H28V1.5Z" fill="white"/>
<path d="M32 1.5C32 0.671573 32.6716 0 33.5 0C34.3284 0 35 0.671573 35 1.5V6H32V1.5Z" fill="white"/>
<path d="M36 1.5C36 0.671573 36.6716 0 37.5 0C38.3284 0 39 0.671573 39 1.5V6H36V1.5Z" fill="white"/>
<path d="M40 1.5C40 0.671573 40.6716 0 41.5 0C42.3284 0 43 0.671573 43 1.5V6H40V1.5Z" fill="white"/>
</svg>
