<svg width="65" height="105" viewBox="0 0 65 105" fill="none" xmlns="http://www.w3.org/2000/svg">
<path d="M50.4178 60.9839L55.3714 32.9012L52.7547 0.563463L42.3864 10.4676L38.0237 29.9424L41.5326 57.8835C38.7612 57.2706 35.8512 56.9229 32.8305 56.8919C30.1693 56.861 27.5847 57.066 25.1119 57.4773L25.7161 14.0427L11.1959 -6.91295e-06L6.78524 32.5124L14.0676 61.011C5.67222 65.2446 0.120797 72.3368 0.00172682 80.4322C-0.180394 93.6864 14.2147 104.629 32.1694 104.881C50.1079 105.132 64.8161 94.5949 64.9982 81.3407C65.1175 72.8857 59.2994 65.3751 50.4178 60.9839Z" fill="#E9FBC6"/>
<path d="M34.4997 93.2742C36.4501 93.3011 38.0464 92.2154 38.0653 90.8493C38.0841 89.4832 36.5183 88.3538 34.5679 88.3269C32.6176 88.3 31.0212 89.3857 31.0024 90.7519C30.9835 92.118 32.5493 93.2473 34.4997 93.2742Z" fill="#252621"/>
<path d="M48.8119 86.415L50.1577 82.5993L55.2502 82.4929L57.2612 86.2396L54.1422 91.0372L50.2788 90.7494L48.8119 86.415Z" fill="#252621"/>
<path d="M18.9144 86.4752L17.5474 82.6566L12.4712 82.5847L10.4756 86.3574L13.6353 91.1244L17.5035 90.8243L18.9144 86.4752Z" fill="#252621"/>
</svg>
