<svg width="13" height="13" viewBox="0 0 13 13" fill="none" xmlns="http://www.w3.org/2000/svg">
<g clip-path="url(#clip0_3070_1914)">
<path d="M1.08333 2.16683H3.25V1.0835H1.08333C0.796016 1.0835 0.520465 1.19763 0.317301 1.4008C0.114137 1.60396 0 1.87951 0 2.16683L0 4.3335H1.08333V2.16683ZM11.9167 1.0835H9.75V2.16683H11.9167V4.3335H13V2.16683C13 1.87951 12.8859 1.60396 12.6827 1.4008C12.4795 1.19763 12.204 1.0835 11.9167 1.0835ZM1.08333 8.66683H0V10.8335C0 11.1208 0.114137 11.3964 0.317301 11.5995C0.520465 11.8027 0.796016 11.9168 1.08333 11.9168H3.25V10.8335H1.08333V8.66683ZM11.9167 10.8335H9.75V11.9168H11.9167C12.204 11.9168 12.4795 11.8027 12.6827 11.5995C12.8859 11.3964 13 11.1208 13 10.8335V8.66683H11.9167V10.8335ZM2.16667 4.3335V8.66683C2.16667 8.95415 2.2808 9.2297 2.48397 9.43286C2.68713 9.63603 2.96268 9.75016 3.25 9.75016H9.75C10.0373 9.75016 10.3129 9.63603 10.516 9.43286C10.7192 9.2297 10.8333 8.95415 10.8333 8.66683V4.3335C10.8333 4.04618 10.7192 3.77063 10.516 3.56746C10.3129 3.3643 10.0373 3.25016 9.75 3.25016H3.25C2.96268 3.25016 2.68713 3.3643 2.48397 3.56746C2.2808 3.77063 2.16667 4.04618 2.16667 4.3335ZM3.25 8.66683V6.50016H9.75V8.66683H3.25ZM9.75 4.3335V5.41683H3.25V4.3335H9.75Z" fill="white"/>
</g>
<defs>
<clipPath id="clip0_3070_1914">
<rect width="13" height="13" fill="white"/>
</clipPath>
</defs>
</svg>
