<svg width="48" height="63" viewBox="0 0 48 63" fill="none" xmlns="http://www.w3.org/2000/svg">
<path d="M40.1619 19.7622C40.2739 19.1423 40.3362 18.5036 40.3362 17.8461C40.3362 12.7302 36.7502 8.4597 31.9626 7.43276C31.9626 3.33128 28.6568 0 24.5665 0C20.5323 0 17.2514 3.24988 17.1767 7.28874C11.9533 7.94623 7.91284 12.4234 7.91284 17.8461C7.91284 18.4535 7.96887 19.0484 8.06226 19.6308C3.25603 22.3233 0 27.4893 0 33.4192C0 42.1231 7.01634 49.1802 15.67 49.1802C18.7331 49.1802 21.5844 48.2973 24 46.7694C26.4156 48.2973 29.2669 49.1802 32.33 49.1802C40.9837 49.1802 48 42.1231 48 33.4192C48 27.5832 44.8498 22.4924 40.1619 19.7622Z" fill="#3E7232"/>
<path d="M23.8506 63.0001C23.6825 63.0001 23.5518 62.8623 23.5518 62.6995L24.0685 16.6815C24.0685 16.5187 24.2055 16.3872 24.3673 16.3872C24.3673 16.3872 24.3673 16.3872 24.3735 16.3872C24.5354 16.3872 24.6724 16.525 24.6662 16.6878L24.1494 62.7058C24.1432 62.8686 24.0125 63.0001 23.8506 63.0001Z" fill="#46332A"/>
<path d="M24.3612 36.8507C24.2989 36.8507 24.2429 36.832 24.1869 36.7944C24.0499 36.7005 24.0188 36.5126 24.1122 36.3748L29.3106 28.9483C29.404 28.8106 29.5908 28.7793 29.7277 28.8732C29.8647 28.9671 29.8958 29.155 29.8024 29.2927L24.604 36.7192C24.548 36.8006 24.4546 36.8507 24.3612 36.8507Z" fill="#46332A"/>
<path d="M23.9999 26.3748C23.9252 26.3748 23.8443 26.3435 23.7883 26.2871L19.0505 21.478C18.9322 21.3591 18.9384 21.1712 19.0505 21.0522C19.1688 20.9333 19.3556 20.9395 19.4739 21.0522L24.2116 25.8613C24.3299 25.9803 24.3237 26.1681 24.2116 26.2871C24.1493 26.3497 24.0746 26.3748 23.9999 26.3748Z" fill="#46332A"/>
</svg>
