<svg width="100" height="31" viewBox="0 0 100 31" fill="none" xmlns="http://www.w3.org/2000/svg">
<path d="M27.4885 6.10479C27.4885 5.62717 27.5042 5.27007 27.5354 5.03126C27.5667 4.79245 27.6649 4.51794 27.8323 4.20547C28.1224 3.64527 28.9326 3.36405 30.2605 3.36405C31.7135 3.36405 32.575 3.74793 32.8451 4.5157C32.9477 4.86833 33.0013 5.40845 33.0013 6.13604V23.4532C33.0013 23.9509 32.9857 24.3147 32.9544 24.5424C32.9232 24.7723 32.825 25.0401 32.6576 25.3526C32.3674 25.9128 31.5573 26.194 30.2271 26.194C28.7741 26.194 27.9215 25.7989 27.6738 25.0111C27.5488 24.6785 27.4863 24.1496 27.4863 23.422V6.10479H27.4885Z" fill="white"/>
<path d="M50.2404 4.31491C50.4368 3.95111 50.7337 3.70783 51.1287 3.58284C51.5238 3.45786 52.017 3.39537 52.6085 3.39537C53.1999 3.39537 53.6775 3.4467 54.0413 3.55159C54.4051 3.65649 54.6752 3.78149 54.8515 3.92433C55.0278 4.0694 55.1573 4.28812 55.2398 4.57827C55.3648 4.91082 55.4273 5.43977 55.4273 6.16737V23.4555C55.4273 23.9532 55.4117 24.317 55.3805 24.5447C55.3492 24.7746 55.251 25.0424 55.0836 25.3548C54.7935 25.915 53.9833 26.1963 52.6553 26.1963C51.8452 26.1963 51.285 26.1338 50.9725 26.0088C50.66 25.8838 50.4011 25.6874 50.1936 25.4173C45.5222 19.1882 42.4489 15.1172 40.9737 13.2067V23.4533C40.9737 23.951 40.958 24.3148 40.9268 24.5424C40.8955 24.7723 40.7973 25.0402 40.6299 25.3526C40.3398 25.9128 39.5296 26.194 38.1994 26.194C36.9116 26.194 36.1238 25.9128 35.8314 25.3526C35.664 25.0402 35.5658 24.7612 35.5346 24.5112C35.5033 24.2612 35.4877 23.8997 35.4877 23.422V6.04238C35.4877 5.2523 35.5859 4.67647 35.7845 4.31267C35.9809 3.94888 36.2778 3.7056 36.6728 3.58061C37.0679 3.45562 37.5767 3.39314 38.1994 3.39314C38.8221 3.39314 39.3154 3.45117 39.6792 3.565C40.043 3.67882 40.2974 3.80827 40.4425 3.95334C40.5251 4.01584 40.7639 4.2859 41.1589 4.76352C45.5401 10.7226 48.4683 14.6574 49.9436 16.5679V6.04015C49.9458 5.25453 50.044 4.6787 50.2404 4.31491Z" fill="white"/>
<path d="M72.6664 4.31491C72.8628 3.95111 73.1596 3.70783 73.5547 3.58284C73.9497 3.45786 74.4429 3.39537 75.0344 3.39537C75.6258 3.39537 76.1035 3.4467 76.4673 3.55159C76.8311 3.65649 77.1011 3.78149 77.2774 3.92433C77.4538 4.0694 77.5832 4.28812 77.6658 4.57827C77.7908 4.91082 77.8533 5.43977 77.8533 6.16737V23.4555C77.8533 23.9532 77.8376 24.317 77.8064 24.5447C77.7751 24.7746 77.6769 25.0424 77.5095 25.3548C77.2194 25.915 76.4092 26.1963 75.0813 26.1963C74.2711 26.1963 73.7109 26.1338 73.3984 26.0088C73.086 25.8838 72.8271 25.6874 72.6195 25.4173C67.9482 19.1882 64.8749 15.1172 63.3996 13.2067V23.4533C63.3996 23.951 63.384 24.3148 63.3527 24.5424C63.3215 24.7723 63.2233 25.0402 63.0559 25.3526C62.7657 25.9128 61.9556 26.194 60.6254 26.194C59.3376 26.194 58.5497 25.9128 58.2573 25.3526C58.0899 25.0402 57.9917 24.7612 57.9605 24.5112C57.9293 24.2612 57.9136 23.8997 57.9136 23.422V6.04238C57.9136 5.2523 58.0118 4.67647 58.2105 4.31267C58.4069 3.94888 58.7037 3.7056 59.0988 3.58061C59.4938 3.45562 60.0027 3.39314 60.6254 3.39314C61.2481 3.39314 61.7413 3.45117 62.1051 3.565C62.4689 3.67882 62.7233 3.80827 62.8684 3.95334C62.951 4.01584 63.1898 4.2859 63.5848 4.76352C67.966 10.7226 70.8943 14.6574 72.3695 16.5679V6.04015C72.3718 5.25453 72.47 4.6787 72.6664 4.31491Z" fill="white"/>
<path d="M98.4735 3.80155C99.4912 4.50683 100 5.19201 100 5.85711C100 6.25215 99.7613 6.8012 99.2837 7.50871L92.5568 17.57V23.5202C92.5568 23.9978 92.5411 24.3572 92.5099 24.596C92.4787 24.8348 92.3804 25.1093 92.2131 25.4218C92.0457 25.7343 91.7667 25.9507 91.3716 26.0757C90.9766 26.2007 90.4476 26.2632 89.7825 26.2632C89.1174 26.2632 88.5885 26.2007 88.1934 26.0757C87.7984 25.9507 87.5194 25.7276 87.352 25.4062C87.1846 25.0848 87.0864 24.8036 87.0552 24.5647C87.0239 24.3259 87.0083 23.9577 87.0083 23.46V17.5723L80.2814 7.51094C79.8038 6.80566 79.565 6.25438 79.565 5.85934C79.565 5.19424 80.0225 4.55592 80.9354 3.94438C81.8482 3.33285 82.5021 3.02485 82.8972 3.02485C83.2922 3.02485 83.6025 3.10743 83.8323 3.27482C84.185 3.5047 84.5599 3.92877 84.9528 4.55146L89.7803 12.276L94.6079 4.55146C95.0029 3.92877 95.3444 3.5181 95.6368 3.32169C95.9269 3.12529 96.2639 3.02485 96.65 3.02485C97.0339 3.02262 97.641 3.28152 98.4735 3.80155Z" fill="white"/>
<path d="M11.0746 30.4233C7.6799 30.4233 4.16917 29.2359 2.18725 25.9595C0.707517 23.5134 0.698589 20.8463 0.694125 19.2527C0.682966 16.0946 2.47739 12.9409 4.158 11.0438C5.61095 9.40339 8.48339 7.80315 10.4184 7.205L11.6214 11.0974C10.3046 11.5036 8.08835 12.7512 7.20675 13.7466C5.76496 15.3737 4.76285 17.6323 4.76731 19.2393C4.77177 20.8909 4.84542 22.4867 5.67345 23.8526C7.8049 27.3767 13.2194 26.4438 15.362 25.4752C16.5873 24.9217 19.2946 23.1295 20.7654 20.3061C21.4283 19.0317 21.5734 17.6167 21.1739 16.3222C20.973 15.675 20.7007 15.2732 20.3637 15.1326C19.7343 14.8693 18.5068 15.1505 17.0784 15.887C16.0093 16.4383 15.0563 16.8668 14.322 17.1279C12.6191 17.7305 11.4473 17.465 10.8336 16.3356C10.4117 15.5567 10.2801 14.3515 12.0432 13.0257C12.6503 12.5704 13.5341 12.0102 14.6679 11.363C19.183 8.78962 18.6005 6.52204 18.1764 5.41503C17.6542 4.66958 16.9824 4.25669 16.0785 4.12277C14.1434 3.83486 11.1683 4.83028 7.70893 6.92378C4.86328 8.64679 2.67156 10.5104 2.64924 10.5283L0 7.43488C0.0982028 7.3523 2.42606 5.36369 5.54623 3.47105C9.9609 0.790564 13.706 -0.347699 16.6722 0.0919818C18.7969 0.406677 20.5378 1.54048 21.7073 3.3684L21.81 3.53132L21.8814 3.70987C22.9438 6.36357 22.6581 8.8856 21.1025 11.1063C21.3904 11.1733 21.6693 11.2626 21.9372 11.3764C22.9683 11.8094 24.3476 12.8115 25.0618 15.1192C25.7805 17.4471 25.5372 19.958 24.3744 22.1898C22.5219 25.7475 19.2611 28.1847 17.0337 29.189C15.3911 29.9323 13.2574 30.4233 11.0746 30.4233Z" fill="white"/>
</svg>
