<svg width="242" height="66" viewBox="0 0 242 66" fill="none" xmlns="http://www.w3.org/2000/svg">
<g filter="url(#filter0_d_3070_1754)">
<path d="M242 65.9999H0C5.20696 51.7327 25.8907 32.8607 55.0332 20.1901C70.2322 13.5664 87.7465 8.63204 106.557 6.92203C108.43 6.74691 110.303 6.61298 112.207 6.49967C115.109 6.33485 118.042 6.25244 120.995 6.25244C122.044 6.25244 123.104 6.26274 124.144 6.29365C125.708 6.32455 127.262 6.37605 128.816 6.45846C139.816 7.00443 150.415 8.66294 160.428 11.1765C166.211 12.598 171.788 14.3184 177.139 16.2653C211.417 28.699 236.217 50.1772 242 65.9999Z" fill="#02C275"/>
<path d="M224.455 57.8928L215.317 65.9999H175.328C171.737 62.1987 167.981 58.5521 164.05 55.0908L162.074 53.319C161.405 52.7421 160.716 52.2168 160.037 51.6605L155.91 48.3435C154.5 47.2927 153.06 46.2832 151.64 45.2325L149.489 43.677L147.266 42.2451C141.39 38.2791 135.113 34.9415 128.641 31.9129C122.158 28.8843 115.376 26.4223 108.389 24.4857C101.402 22.5284 94.2088 21.1069 86.882 20.2518C79.5655 19.4071 72.1153 19.1084 64.6444 19.4277C61.4441 19.572 58.2438 19.8192 55.0435 20.2003C70.2424 13.5766 87.7567 8.64229 106.568 6.93227C108.44 6.75715 110.313 6.62324 112.217 6.50992C115.119 6.3451 118.052 6.2627 121.005 6.2627C122.055 6.2627 123.115 6.273 124.154 6.3039C125.718 6.33481 127.272 6.38631 128.826 6.46872C131.429 6.94258 134.033 7.50915 136.605 8.13753C144.766 10.1463 152.926 12.6289 160.757 15.915L163.721 17.0997L166.623 18.4182C168.547 19.3041 170.502 20.1797 172.426 21.0966L178.096 24.053C179.033 24.5578 179.99 25.0316 180.926 25.557L183.674 27.1743C198.43 35.7347 212.086 46.2111 224.455 57.8928Z" fill="#048A55"/>
</g>
<defs>
<filter id="filter0_d_3070_1754" x="-4" y="0" width="250" height="74" filterUnits="userSpaceOnUse" color-interpolation-filters="sRGB">
<feFlood flood-opacity="0" result="BackgroundImageFix"/>
<feColorMatrix in="SourceAlpha" type="matrix" values="0 0 0 0 0 0 0 0 0 0 0 0 0 0 0 0 0 0 127 0" result="hardAlpha"/>
<feOffset dy="4"/>
<feGaussianBlur stdDeviation="2"/>
<feComposite in2="hardAlpha" operator="out"/>
<feColorMatrix type="matrix" values="0 0 0 0 0 0 0 0 0 0 0 0 0 0 0 0 0 0 0.25 0"/>
<feBlend mode="normal" in2="BackgroundImageFix" result="effect1_dropShadow_3070_1754"/>
<feBlend mode="normal" in="SourceGraphic" in2="effect1_dropShadow_3070_1754" result="shape"/>
</filter>
</defs>
</svg>
