<svg width="21" height="21" viewBox="0 0 21 21" fill="none" xmlns="http://www.w3.org/2000/svg">
<path d="M10.4999 0C8.42324 0 6.39318 0.615809 4.66648 1.76956C2.93978 2.9233 1.59398 4.56316 0.799263 6.48177C0.00454945 8.40038 -0.203384 10.5116 0.201758 12.5483C0.606899 14.5851 1.60692 16.456 3.07536 17.9245C4.5438 19.3929 6.41471 20.3929 8.45149 20.7981C10.4883 21.2032 12.5995 20.9953 14.5181 20.2006C16.4367 19.4059 18.0765 18.0601 19.2303 16.3334C20.384 14.6067 20.9998 12.5766 20.9998 10.4999C20.9968 7.7161 19.8896 5.04719 17.9211 3.07873C15.9527 1.11028 13.2837 0.00305715 10.4999 0ZM10.4999 18.8999C8.83857 18.8999 7.21453 18.4072 5.83317 17.4842C4.45181 16.5612 3.37517 15.2493 2.7394 13.7144C2.10362 12.1795 1.93728 10.4906 2.26139 8.86117C2.5855 7.23174 3.38552 5.73502 4.56027 4.56027C5.73502 3.38552 7.23175 2.5855 8.86118 2.26139C10.4906 1.93727 12.1796 2.10362 13.7144 2.73939C15.2493 3.37516 16.5612 4.4518 17.4842 5.83316C18.4072 7.21453 18.8999 8.83857 18.8999 10.4999C18.8971 12.7269 18.0112 14.8618 16.4365 16.4365C14.8618 18.0112 12.7269 18.8971 10.4999 18.8999ZM10.4999 9.97492C10.2214 9.97492 9.95438 10.0855 9.75747 10.2825C9.56056 10.4794 9.44993 10.7464 9.44993 11.0249V14.1749C9.44993 14.4534 9.56056 14.7204 9.75747 14.9173C9.95438 15.1143 10.2214 15.2249 10.4999 15.2249C10.7784 15.2249 11.0455 15.1143 11.2424 14.9173C11.4393 14.7204 11.5499 14.4534 11.5499 14.1749V11.0249C11.5499 10.7464 11.4393 10.4794 11.2424 10.2825C11.0455 10.0855 10.7784 9.97492 10.4999 9.97492ZM10.4999 5.77495C10.2403 5.77495 9.98658 5.85193 9.77074 5.99615C9.55491 6.14037 9.38668 6.34535 9.28734 6.58518C9.188 6.825 9.16201 7.0889 9.21265 7.3435C9.2633 7.5981 9.3883 7.83196 9.57185 8.01551C9.75541 8.19907 9.98927 8.32407 10.2439 8.37472C10.4985 8.42536 10.7624 8.39937 11.0022 8.30003C11.242 8.20069 11.447 8.03246 11.5912 7.81662C11.7354 7.60079 11.8124 7.34703 11.8124 7.08744C11.8124 6.73935 11.6741 6.40551 11.428 6.15937C11.1819 5.91323 10.848 5.77495 10.4999 5.77495Z" fill="#242424"/>
</svg>
