<svg width="259" height="41" viewBox="0 0 259 41" fill="none" xmlns="http://www.w3.org/2000/svg">
<path d="M14.2318 18.7096L23.7602 9.40532C24.4289 8.7407 25.4289 8.74375 26.0935 9.41245C26.7582 10.0811 26.7551 11.0811 26.0864 11.7458L17.8943 20.0541L26.0355 28.4124C26.7001 29.0811 26.6971 30.0811 26.0284 30.7457C25.694 31.078 25.3602 31.2436 24.8602 31.2421C24.3602 31.2406 24.0274 31.0729 23.6951 30.7386L14.2236 21.3762C13.5595 20.5409 13.5625 19.5409 14.2318 18.7096C14.2312 18.8763 14.2312 18.8763 14.2318 18.7096Z" fill="#242424"/>
<path d="M59.3639 13.6871C59.3639 13.3527 59.3749 13.1028 59.3967 12.9356C59.4186 12.7684 59.4874 12.5763 59.6045 12.3576C59.8076 11.9654 60.3748 11.7686 61.3043 11.7686C62.3214 11.7686 62.9244 12.0373 63.1135 12.5747C63.1854 12.8216 63.2229 13.1996 63.2229 13.7089V25.831C63.2229 26.1794 63.2119 26.434 63.19 26.5934C63.1682 26.7543 63.0994 26.9418 62.9823 27.1605C62.7792 27.5526 62.212 27.7495 61.2809 27.7495C60.2638 27.7495 59.667 27.473 59.4936 26.9215C59.4061 26.6887 59.3624 26.3184 59.3624 25.8091V13.6871H59.3639Z" fill="#242424"/>
<path d="M75.2902 12.4343C75.4277 12.1796 75.6355 12.0093 75.912 11.9219C76.1886 11.8344 76.5338 11.7906 76.9478 11.7906C77.3618 11.7906 77.6962 11.8266 77.9509 11.9C78.2055 11.9734 78.3945 12.0609 78.518 12.1609C78.6414 12.2624 78.732 12.4156 78.7898 12.6187C78.8773 12.8514 78.921 13.2217 78.921 13.731V25.8327C78.921 26.1811 78.9101 26.4358 78.8882 26.5951C78.8664 26.7561 78.7976 26.9435 78.6804 27.1622C78.4773 27.5544 77.9102 27.7512 76.9806 27.7512C76.4135 27.7512 76.0214 27.7075 75.8027 27.62C75.5839 27.5325 75.4027 27.395 75.2574 27.206C71.9875 22.8456 69.8362 19.9959 68.8035 18.6586V25.8312C68.8035 26.1796 68.7926 26.4342 68.7707 26.5936C68.7488 26.7545 68.6801 26.942 68.5629 27.1607C68.3598 27.5528 67.7927 27.7497 66.8615 27.7497C65.9601 27.7497 65.4086 27.5528 65.2039 27.1607C65.0867 26.942 65.018 26.7467 64.9961 26.5717C64.9742 26.3967 64.9633 26.1436 64.9633 25.8093V13.6435C64.9633 13.0905 65.0321 12.6874 65.1711 12.4327C65.3086 12.1781 65.5164 12.0078 65.7929 11.9203C66.0694 11.8328 66.4256 11.7891 66.8615 11.7891C67.2974 11.7891 67.6427 11.8297 67.8973 11.9094C68.152 11.989 68.3301 12.0797 68.4317 12.1812C68.4895 12.225 68.6566 12.414 68.9332 12.7483C72 16.9197 74.0497 19.6741 75.0824 21.0114V13.642C75.084 13.092 75.1527 12.689 75.2902 12.4343Z" fill="#242424"/>
<path d="M90.9884 12.4343C91.1258 12.1796 91.3336 12.0093 91.6102 11.9219C91.8867 11.8344 92.232 11.7906 92.646 11.7906C93.06 11.7906 93.3943 11.8266 93.649 11.9C93.9036 11.9734 94.0927 12.0609 94.2161 12.1609C94.3395 12.2624 94.4301 12.4156 94.4879 12.6187C94.5754 12.8514 94.6192 13.2217 94.6192 13.731V25.8327C94.6192 26.1811 94.6082 26.4358 94.5864 26.5951C94.5645 26.7561 94.4957 26.9435 94.3786 27.1622C94.1755 27.5544 93.6083 27.7512 92.6788 27.7512C92.1116 27.7512 91.7195 27.7075 91.5008 27.62C91.2821 27.5325 91.1008 27.395 90.9555 27.206C87.6856 22.8456 85.5343 19.9959 84.5016 18.6586V25.8312C84.5016 26.1796 84.4907 26.4342 84.4688 26.5936C84.4469 26.7545 84.3782 26.942 84.261 27.1607C84.0579 27.5528 83.4908 27.7497 82.5597 27.7497C81.6582 27.7497 81.1067 27.5528 80.902 27.1607C80.7849 26.942 80.7161 26.7467 80.6943 26.5717C80.6724 26.3967 80.6614 26.1436 80.6614 25.8093V13.6435C80.6614 13.0905 80.7302 12.6874 80.8692 12.4327C81.0067 12.1781 81.2145 12.0078 81.491 11.9203C81.7676 11.8328 82.1238 11.7891 82.5597 11.7891C82.9955 11.7891 83.3408 11.8297 83.5955 11.9094C83.8501 11.989 84.0282 12.0797 84.1298 12.1812C84.1876 12.225 84.3548 12.414 84.6313 12.7483C87.6981 16.9197 89.7479 19.6741 90.7806 21.0114V13.642C90.7821 13.092 90.8509 12.689 90.9884 12.4343Z" fill="#242424"/>
<path d="M109.053 12.075C109.766 12.5686 110.122 13.0483 110.122 13.5138C110.122 13.7904 109.955 14.1747 109.621 14.67L104.912 21.7129V25.878C104.912 26.2123 104.901 26.4639 104.879 26.631C104.857 26.7982 104.788 26.9904 104.671 27.2091C104.554 27.4278 104.359 27.5794 104.082 27.6669C103.806 27.7544 103.435 27.7981 102.97 27.7981C102.504 27.7981 102.134 27.7544 101.857 27.6669C101.581 27.5794 101.386 27.4231 101.268 27.1982C101.151 26.9732 101.083 26.7763 101.061 26.6092C101.039 26.442 101.028 26.1842 101.028 25.8358V21.7144L96.319 14.6715C95.9847 14.1778 95.8175 13.7919 95.8175 13.5154C95.8175 13.0498 96.1378 12.603 96.7768 12.1749C97.4158 11.7469 97.8735 11.5313 98.15 11.5313C98.4266 11.5313 98.6437 11.5891 98.8047 11.7062C99.0515 11.8672 99.314 12.164 99.5889 12.5999L102.968 18.0071L106.348 12.5999C106.624 12.164 106.863 11.8765 107.068 11.7391C107.271 11.6016 107.507 11.5313 107.777 11.5313C108.046 11.5297 108.471 11.7109 109.053 12.075Z" fill="#242424"/>
<path d="M47.8742 30.7094C45.4979 30.7094 43.0404 29.8782 41.6531 27.5847C40.6173 25.8724 40.611 24.0055 40.6079 22.89C40.6001 20.6793 41.8562 18.4717 43.0326 17.1438C44.0497 15.9955 46.0604 14.8753 47.4149 14.4566L48.257 17.1813C47.3352 17.4656 45.7838 18.3389 45.1667 19.0357C44.1575 20.1747 43.456 21.7557 43.4591 22.8806C43.4622 24.0367 43.5138 25.1538 44.0934 26.1099C45.5854 28.5768 49.3756 27.9237 50.8754 27.2457C51.7331 26.8582 53.6282 25.6037 54.6578 23.6274C55.1218 22.7353 55.2234 21.7448 54.9437 20.8386C54.8031 20.3856 54.6125 20.1043 54.3766 20.0059C53.936 19.8216 53.0767 20.0184 52.0769 20.534C51.3285 20.9199 50.6614 21.2198 50.1474 21.4026C48.9554 21.8245 48.1351 21.6385 47.7055 20.848C47.4102 20.3028 47.318 19.4591 48.5523 18.5311C48.9772 18.2124 49.5959 17.8202 50.3896 17.3672C53.5501 15.5658 53.1424 13.9785 52.8455 13.2036C52.4799 12.6818 52.0097 12.3928 51.3769 12.299C50.0224 12.0975 47.9398 12.7943 45.5183 14.2597C43.5263 15.4658 41.9921 16.7704 41.9765 16.7829L40.122 14.6175C40.1908 14.5597 41.8203 13.1677 44.0044 11.8428C47.0946 9.96648 49.7162 9.1697 51.7925 9.47747C53.2798 9.69776 54.4984 10.4914 55.3171 11.771L55.389 11.885L55.439 12.01C56.1826 13.8676 55.9826 15.633 54.8937 17.1875C55.0953 17.2344 55.2905 17.2969 55.478 17.3766C56.1998 17.6796 57.1653 18.3811 57.6653 19.9965C58.1683 21.626 57.998 23.3836 57.1841 24.946C55.8873 27.4363 53.6048 29.1424 52.0456 29.8454C50.8957 30.3656 49.4022 30.7094 47.8742 30.7094Z" fill="#242424"/>
</svg>
