<svg width="29" height="7" viewBox="0 0 29 7" fill="none" xmlns="http://www.w3.org/2000/svg">
<rect x="2" y="1" width="1" height="5" fill="white"/>
<rect x="4" y="1" width="1" height="5" fill="white"/>
<rect x="6" y="1" width="1" height="5" fill="white"/>
<rect x="8" y="1" width="1" height="5" fill="white"/>
<rect x="10" y="1" width="1" height="5" fill="white"/>
<rect x="12" y="1" width="1" height="5" fill="white"/>
<rect x="14" y="1" width="1" height="5" fill="white"/>
<rect x="16" y="1" width="1" height="5" fill="white"/>
<rect x="18" y="1" width="1" height="5" fill="white"/>
<rect x="20" y="1" width="1" height="5" fill="white"/>
<rect x="22" y="1" width="1" height="5" fill="white"/>
<rect x="24" y="1" width="1" height="5" fill="white"/>
<rect x="26" y="1" width="1" height="5" fill="white"/>
<rect x="2" y="6" width="25" height="1" fill="white"/>
<rect width="29" height="1" rx="0.5" fill="white"/>
</svg>
