<svg width="128" height="66" viewBox="0 0 128 66" fill="none" xmlns="http://www.w3.org/2000/svg">
<path d="M0 65C-1.50709e-06 47.7609 6.74283 31.2279 18.7452 19.0381C30.7475 6.8482 47.0261 1.4839e-06 64 0C80.9738 -1.4839e-06 97.2525 6.84819 109.255 19.0381C121.257 31.2279 128 47.7609 128 65L0 65Z" fill="#E3A965"/>
<path d="M0 65C-1.50709e-06 47.7609 6.74283 31.2279 18.7452 19.0381C30.7475 6.8482 47.0261 1.4839e-06 64 0C80.9738 -1.4839e-06 97.2525 6.84819 109.255 19.0381C121.257 31.2279 128 47.7609 128 65L0 65Z" fill="#E3A965"/>
<path d="M0 65C-1.50709e-06 47.7609 6.74283 31.2279 18.7452 19.0381C30.7475 6.8482 47.0261 1.4839e-06 64 0C80.9738 -1.4839e-06 97.2525 6.84819 109.255 19.0381C121.257 31.2279 128 47.7609 128 65L0 65Z" fill="#E3A965"/>
<path d="M0 65C-1.50709e-06 47.7609 6.74283 31.2279 18.7452 19.0381C30.7475 6.8482 47.0261 1.4839e-06 64 0C80.9738 -1.4839e-06 97.2525 6.84819 109.255 19.0381C121.257 31.2279 128 47.7609 128 65L0 65Z" fill="#E8AE07"/>
<path d="M9 64C9 49.4131 14.7946 35.4236 25.1091 25.1091C35.4236 14.7946 49.4131 9.00001 64 9.00001C78.5869 9.00001 92.5764 14.7946 102.891 25.1091C113.205 35.4236 119 49.4131 119 64L9 64Z" fill="#E3A965"/>
<path d="M9 64C9 49.4131 14.7946 35.4236 25.1091 25.1091C35.4236 14.7946 49.4131 9.00001 64 9.00001C78.5869 9.00001 92.5764 14.7946 102.891 25.1091C113.205 35.4236 119 49.4131 119 64L9 64Z" fill="#E3A965"/>
<path d="M9 64C9 49.4131 14.7946 35.4236 25.1091 25.1091C35.4236 14.7946 49.4131 9.00001 64 9.00001C78.5869 9.00001 92.5764 14.7946 102.891 25.1091C113.205 35.4236 119 49.4131 119 64L9 64Z" fill="#E3A965"/>
<path d="M9 64C9 49.4131 14.7946 35.4236 25.1091 25.1091C35.4236 14.7946 49.4131 9.00001 64 9.00001C78.5869 9.00001 92.5764 14.7946 102.891 25.1091C113.205 35.4236 119 49.4131 119 64L9 64Z" fill="#FCBC05"/>
<path d="M19 65.5C19 53.6979 23.7411 42.3791 32.1802 34.0338C40.6193 25.6884 52.0653 21 64 21C75.9347 21 87.3807 25.6884 95.8198 34.0337C104.259 42.3791 109 53.6979 109 65.5L19 65.5Z" fill="#E3A965"/>
<path d="M19 65.5C19 53.6979 23.7411 42.3791 32.1802 34.0338C40.6193 25.6884 52.0653 21 64 21C75.9347 21 87.3807 25.6884 95.8198 34.0337C104.259 42.3791 109 53.6979 109 65.5L19 65.5Z" fill="#E3A965"/>
<path d="M19 65.5C19 53.6979 23.7411 42.3791 32.1802 34.0338C40.6193 25.6884 52.0653 21 64 21C75.9347 21 87.3807 25.6884 95.8198 34.0337C104.259 42.3791 109 53.6979 109 65.5L19 65.5Z" fill="#E3A965"/>
<path d="M19 65.5C19 53.6979 23.7411 42.3791 32.1802 34.0338C40.6193 25.6884 52.0653 21 64 21C75.9347 21 87.3807 25.6884 95.8198 34.0337C104.259 42.3791 109 53.6979 109 65.5L19 65.5Z" fill="#FFD527"/>
</svg>
